<svg width="156" height="24" viewBox="0 0 156 24" fill="none" xmlns="http://www.w3.org/2000/svg">
<path d="M33.4922 0.589684C33.4922 0.527184 33.4688 0.480309 33.4219 0.449059C33.3906 0.402184 33.3438 0.378746 33.2812 0.378746H29.0156C28.9531 0.378746 28.8984 0.402184 28.8516 0.449059C28.8203 0.480309 28.8047 0.527184 28.8047 0.589684V10.0819H4.6875V0.589684C4.6875 0.527184 4.66406 0.480309 4.61719 0.449059C4.58594 0.402184 4.54688 0.378746 4.5 0.378746H0.210938C0.148438 0.378746 0.09375 0.402184 0.046875 0.449059C0.015625 0.480309 0 0.527184 0 0.589684V23.6287C0 23.6756 0.015625 23.7225 0.046875 23.7694C0.09375 23.8006 0.148438 23.8162 0.210938 23.8162H4.5C4.54688 23.8162 4.58594 23.8006 4.61719 23.7694C4.66406 23.7225 4.6875 23.6756 4.6875 23.6287V14.1131H28.8047V23.6287C28.8047 23.6756 28.8203 23.7225 28.8516 23.7694C28.8984 23.8006 28.9531 23.8162 29.0156 23.8162H33.2812C33.3438 23.8162 33.3906 23.8006 33.4219 23.7694C33.4688 23.7225 33.4922 23.6756 33.4922 23.6287V0.589684ZM45.2344 6.40218C45.2344 5.85531 45.4297 5.38656 45.8203 4.99593C46.2109 4.58968 46.6875 4.38656 47.25 4.38656H73.8281C73.8906 4.38656 73.9375 4.37093 73.9688 4.33968C74.0156 4.29281 74.0391 4.24593 74.0391 4.19906V0.589684C74.0391 0.527184 74.0156 0.480309 73.9688 0.449059C73.9375 0.402184 73.8906 0.378746 73.8281 0.378746H47.25C45.3906 0.378746 43.8047 1.035 42.4922 2.3475C41.1953 3.64437 40.5469 5.2225 40.5469 7.08187V17.1131C40.5469 18.9725 41.1953 20.5584 42.4922 21.8709C43.8047 23.1678 45.3906 23.8162 47.25 23.8162H73.8281C73.8906 23.8162 73.9375 23.8006 73.9688 23.7694C74.0156 23.7225 74.0391 23.6678 74.0391 23.6053V19.9959C74.0391 19.9491 74.0156 19.91 73.9688 19.8787C73.9375 19.8319 73.8906 19.8084 73.8281 19.8084H47.25C46.6875 19.8084 46.2109 19.6131 45.8203 19.2225C45.4297 18.8162 45.2344 18.3397 45.2344 17.7928V14.1131H70.4766C70.5391 14.1131 70.5859 14.0975 70.6172 14.0662C70.6641 14.0194 70.6875 13.9647 70.6875 13.9022V10.2928C70.6875 10.2303 70.6641 10.1834 70.6172 10.1522C70.5859 10.1053 70.5391 10.0819 70.4766 10.0819H45.2344V6.40218ZM81.0938 7.05843C81.0938 5.21468 81.7422 3.64437 83.0391 2.3475C84.3516 1.035 85.9375 0.378746 87.7969 0.378746H107.883C109.727 0.378746 111.305 1.035 112.617 2.3475C113.93 3.64437 114.586 5.21468 114.586 7.05843V23.6053C114.586 23.6678 114.562 23.7225 114.516 23.7694C114.484 23.8006 114.438 23.8162 114.375 23.8162H110.086C110.039 23.8162 109.992 23.8006 109.945 23.7694C109.914 23.7225 109.898 23.6678 109.898 23.6053V16.1053H85.7812V23.6053C85.7812 23.6678 85.7578 23.7225 85.7109 23.7694C85.6797 23.8006 85.6406 23.8162 85.5938 23.8162H81.3047C81.2422 23.8162 81.1875 23.8006 81.1406 23.7694C81.1094 23.7225 81.0938 23.6678 81.0938 23.6053V7.05843ZM109.898 12.0975V6.40218C109.898 5.83968 109.695 5.36312 109.289 4.9725C108.898 4.58187 108.43 4.38656 107.883 4.38656H87.7969C87.2344 4.38656 86.7578 4.58187 86.3672 4.9725C85.9766 5.36312 85.7812 5.83968 85.7812 6.40218V12.0975H109.898ZM155.109 9.42562C155.109 10.785 154.75 12.0116 154.031 13.1053C153.312 14.1834 152.359 14.9881 151.172 15.5194L151.266 15.7069L154.992 23.535C155.008 23.5975 155 23.66 154.969 23.7225C154.938 23.785 154.883 23.8162 154.805 23.8162H150.047C149.969 23.8162 149.906 23.7772 149.859 23.6991L146.25 16.1287H126.328V23.6287C126.328 23.6756 126.305 23.7225 126.258 23.7694C126.227 23.8006 126.18 23.8162 126.117 23.8162H121.828C121.781 23.8162 121.734 23.8006 121.688 23.7694C121.656 23.7225 121.641 23.6756 121.641 23.6287V0.589684C121.641 0.527184 121.656 0.480309 121.688 0.449059C121.734 0.402184 121.781 0.378746 121.828 0.378746H148.43C150.273 0.378746 151.844 1.035 153.141 2.3475C154.453 3.64437 155.109 5.2225 155.109 7.08187V9.42562ZM126.328 12.0975H148.43C148.977 12.0975 149.445 11.9022 149.836 11.5116C150.227 11.1209 150.422 10.6444 150.422 10.0819V6.40218C150.422 5.85531 150.227 5.38656 149.836 4.99593C149.445 4.60531 148.977 4.41 148.43 4.41H126.328V12.0975Z" fill="white"/>
</svg>
